<?xml version="1.0" encoding="UTF-8"?>
<svg width="237px" height="237px" viewBox="0 0 237 237" version="1.1" xmlns="http://www.w3.org/2000/svg" xmlns:xlink="http://www.w3.org/1999/xlink">
    <title>Artboard</title>
    <g id="Artboard" stroke="none" stroke-width="1" fill="none" fill-rule="evenodd">
        <rect id="Rectangle" stroke="#000000" stroke-width="12" x="15" y="15" width="207" height="207"></rect>
        <path d="M43.1748047,151.480469 C50.2617188,151.480469 55.206543,147.416504 55.887207,140.970215 L50.0014648,140.970215 C49.3608398,144.393555 46.7783203,146.495605 43.1948242,146.495605 C38.5703125,146.495605 35.6674805,142.691895 35.6674805,136.525879 C35.6674805,130.439941 38.6103516,126.616211 43.1748047,126.616211 C46.6982422,126.616211 49.4208984,128.938477 49.9814453,132.481934 L55.8671875,132.481934 C55.4067383,126.015625 50.121582,121.611328 43.1748047,121.611328 C34.8066406,121.611328 29.5014648,127.236816 29.5014648,136.545898 C29.5014648,145.875 34.7666016,151.480469 43.1748047,151.480469 Z M67.4210719,151.460449 C73.9074001,151.460449 78.051443,147.316406 78.051443,140.249512 C78.051443,133.282715 73.8473415,129.078613 67.4210719,129.078613 C60.9948024,129.078613 56.7907008,133.302734 56.7907008,140.249512 C56.7907008,147.296387 60.9347438,151.460449 67.4210719,151.460449 Z M67.4210719,146.996094 C64.5382594,146.996094 62.7164821,144.57373 62.7164821,140.269531 C62.7164821,136.005371 64.5782985,133.542969 67.4210719,133.542969 C70.2638454,133.542969 72.1056423,136.005371 72.1056423,140.269531 C72.1056423,144.57373 70.2838649,146.996094 67.4210719,146.996094 Z M85.3611868,151 L85.3611868,138.047363 C85.3611868,135.64502 86.8626517,133.963379 89.0848197,133.963379 C91.246929,133.963379 92.5481986,135.324707 92.5481986,137.626953 L92.5481986,151 L98.1736868,151 L98.1736868,137.967285 C98.1736868,135.584961 99.6351126,133.963379 101.857281,133.963379 C104.119488,133.963379 105.360699,135.324707 105.360699,137.807129 L105.360699,151 L111.206402,151 L111.206402,136.345703 C111.206402,132.021484 108.383648,129.138672 104.179546,129.138672 C101.03648,129.138672 98.4739798,130.840332 97.5130423,133.542969 L97.3929251,133.542969 C96.672222,130.740234 94.5101126,129.138672 91.4070853,129.138672 C88.4842337,129.138672 86.1819876,130.840332 85.2811087,133.422852 L85.1609915,133.422852 L85.1609915,129.539062 L79.5154837,129.539062 L79.5154837,151 L85.3611868,151 Z M119.216829,158.006836 L119.216829,147.396484 L119.336946,147.396484 C120.47806,149.818848 122.880403,151.340332 126.00345,151.340332 C131.368685,151.340332 134.691927,147.17627 134.691927,140.269531 C134.691927,133.342773 131.348665,129.19873 125.903353,129.19873 C122.800325,129.19873 120.418001,130.760254 119.256868,133.282715 L119.136751,133.282715 L119.136751,129.539062 L113.371126,129.539062 L113.371126,158.006836 L119.216829,158.006836 Z M123.941438,146.635742 C121.078645,146.635742 119.19681,144.15332 119.19681,140.269531 C119.19681,136.425781 121.078645,133.883301 123.941438,133.883301 C126.86429,133.883301 128.706087,136.385742 128.706087,140.269531 C128.706087,144.17334 126.86429,146.635742 123.941438,146.635742 Z M142.522178,151.340332 C145.204796,151.340332 147.867393,149.999023 149.068565,147.716797 L149.188682,147.716797 L149.188682,151 L154.83419,151 L154.83419,136.245605 C154.83419,131.921387 151.250694,129.078613 145.745323,129.078613 C140.059776,129.078613 136.516319,131.941406 136.296104,136.105469 L141.641319,136.105469 C141.921592,134.523926 143.30294,133.442871 145.485069,133.442871 C147.687217,133.442871 149.088585,134.604004 149.088585,136.605957 L149.088585,138.027344 L143.683311,138.347656 C138.338096,138.667969 135.335167,140.930176 135.335167,144.833984 C135.335167,148.697754 138.438194,151.340332 142.522178,151.340332 Z M144.444053,147.116211 C142.46212,147.116211 141.140831,146.115234 141.140831,144.513672 C141.140831,142.992188 142.382042,142.01123 144.564171,141.851074 L149.088585,141.570801 L149.088585,143.132324 C149.088585,145.45459 146.986534,147.116211 144.444053,147.116211 Z M162.904676,151 L162.904676,138.687988 C162.904676,135.905273 164.566297,133.983398 167.188856,133.983398 C169.811414,133.983398 171.132703,135.584961 171.132703,138.387695 L171.132703,151 L176.978407,151 L176.978407,137.166504 C176.978407,132.141602 174.295789,129.138672 169.531141,129.138672 C166.227918,129.138672 163.965711,130.700195 162.824598,133.362793 L162.704481,133.362793 L162.704481,129.539062 L157.058973,129.539062 L157.058973,151 L162.904676,151 Z M181.805728,158.947754 C187.271061,158.947754 189.973697,156.96582 191.795475,151.460449 L199.182682,129.539062 L193.016666,129.539062 L188.472232,146.31543 L188.352115,146.31543 L183.787662,129.539062 L177.381412,129.539062 L184.848697,151 C184.868717,151.100098 184.648502,151.940918 184.648502,152.041016 C184.248111,153.742676 183.187076,154.42334 181.065006,154.42334 C180.844791,154.42334 179.783756,154.40332 179.583561,154.363281 L179.583561,158.887695 C179.783756,158.927734 181.585514,158.947754 181.805728,158.947754 Z M36.1879883,197 L36.1879883,178.081543 L36.3681641,178.081543 L49.8813477,197 L54.8862305,197 L54.8862305,168.111816 L49.1005859,168.111816 L49.1005859,186.930176 L48.9404297,186.930176 L35.4472656,168.111816 L30.4023438,168.111816 L30.4023438,197 L36.1879883,197 Z M67.4410915,197.460449 C72.7462673,197.460449 76.5900173,194.637695 77.2306423,190.433594 L71.8654079,190.433594 C71.3248805,192.075195 69.683279,193.13623 67.5411891,193.13623 C64.558279,193.13623 62.6163844,191.03418 62.6163844,187.971191 L62.6163844,187.61084 L77.410818,187.61084 L77.410818,185.829102 C77.410818,179.302734 73.4669704,175.078613 67.2208766,175.078613 C60.8746852,175.078613 56.870779,179.522949 56.870779,186.369629 C56.870779,193.236328 60.8346462,197.460449 67.4410915,197.460449 Z M71.7853298,184.027344 L62.676443,184.027344 C62.8766383,181.344727 64.7184352,179.402832 67.2809352,179.402832 C69.8834743,179.402832 71.6652126,181.284668 71.7853298,184.027344 Z M89.1048392,197 L92.9686087,181.825195 L93.0887259,181.825195 L96.972515,197 L103.198589,197 L108.884136,175.539062 L103.118511,175.539062 L99.8553275,191.45459 L99.7352103,191.45459 L95.9114798,175.539062 L90.3060111,175.539062 L86.5023001,191.45459 L86.3821829,191.45459 L83.1390189,175.539062 L77.2532767,175.539062 L82.9588431,197 L89.1048392,197 Z M118.355989,197.460449 C123.88138,197.460449 127.745149,194.677734 127.745149,190.453613 C127.745149,187.310547 125.903353,185.548828 121.418978,184.60791 L117.755403,183.827148 C115.593294,183.366699 114.792513,182.625977 114.792513,181.524902 C114.792513,180.103516 116.133821,179.182617 118.155794,179.182617 C120.317903,179.182617 121.619173,180.36377 121.799349,182.105469 L127.184603,182.105469 C127.064485,177.901367 123.661165,175.078613 118.155794,175.078613 C112.690462,175.078613 109.167024,177.76123 109.167024,181.845215 C109.167024,185.068359 111.269075,187.150391 115.413118,188.03125 L119.076692,188.791992 C121.178743,189.272461 121.919466,189.913086 121.919466,191.054199 C121.919466,192.455566 120.558138,193.356445 118.355989,193.356445 C116.033724,193.356445 114.692415,192.355469 114.332063,190.473633 L108.626497,190.473633 C109.006868,194.697754 112.430208,197.460449 118.355989,197.460449 Z" id="CompanyNews" fill="#000000" fill-rule="nonzero"></path>
    </g>
</svg>